<svg width="92" height="95" fill="none" xmlns="http://www.w3.org/2000/svg">
  <g clip-path="url(#a)">
    <path d="m17.246 36.59.772-12.454c.11-2.204 2.534-3.527 4.518-2.535l11.682 6.392" fill="#338CF4"/>
    <path d="M91.307 33.614c-.22-1.763-1.764-3.086-3.527-2.865-1.763.22-3.086 1.763-2.865 3.526.22 2.425-.44 3.858-1.213 4.629-5.84-9.919-17.413-16.642-33.944-16.642-7.824 0-14.657 1.874-20.278 5.29-1.653.992-3.637 1.323-5.62.992l-9.92-1.763c-1.983-.33-3.636 1.433-3.085 3.306l1.653 6.613c.771 3.196-.33 6.612-2.976 8.486-.771.55-1.432.992-2.094 1.433-2.204 1.322-3.857 2.204-5.07 2.755-1.101.44-1.763 1.432-1.763 2.535v10.91c0 .882.22 1.764.551 2.535 1.103 2.204 4.078 6.833 11.242 12.564 4.077 3.196 8.265 5.18 11.792 6.282a8.187 8.187 0 0 1 5.07 4.849C30.582 92.576 33.999 95 37.746 95h3.747a2.728 2.728 0 0 0 2.755-2.755v-1.874a2.728 2.728 0 0 1 2.755-2.755h5.4a2.728 2.728 0 0 1 2.755 2.755v1.874A2.73 2.73 0 0 0 57.914 95h3.747a9.014 9.014 0 0 0 8.486-5.951l2.204-6.062c.551-1.432 1.543-2.755 2.755-3.636 7.825-5.952 12.784-14.768 12.784-24.467 0-3.526-.55-6.943-1.543-10.139.992-.551 1.874-1.322 2.756-2.314 1.873-2.204 2.645-5.18 2.204-8.817Z" fill="url(#b)"/>
    <path d="M40.942 32.622c-.551-2.094.771-4.298 2.865-4.849.551-.11.992-.22 1.984-.33 1.102-.11 2.865-.221 5.4-.221s4.298.11 5.4.22c.992.11 1.433.22 1.984.331 2.094.551 3.417 2.755 2.866 4.85-.552 2.093-2.645 3.416-4.739 2.975h-.111c-.11 0-.44-.11-.771-.11-.882-.11-2.315-.22-4.629-.22-2.314 0-3.747.11-4.629.22-.44 0-.66.11-.771.11h-.11c-2.094.44-4.298-.882-4.74-2.976Z" fill="#003AE5"/>
    <path d="M51.191 18.956a9.478 9.478 0 0 0 9.478-9.478 9.478 9.478 0 1 0-9.478 9.478Z" fill="#57C3FF"/>
    <path d="M19.748 52.151a3.527 3.527 0 1 0-4.987-4.987 3.527 3.527 0 0 0 4.987 4.987Z" fill="#003AE5"/>
  </g>
  <defs>
    <linearGradient id="b" x1="46.526" y1="34.196" x2="46.526" y2="114.135" gradientUnits="userSpaceOnUse">
      <stop stop-color="#249EFA"/>
      <stop offset=".594" stop-color="#3A83F1"/>
    </linearGradient>
    <clipPath id="a">
      <path fill="#fff" d="M0 0h92v95H0z"/>
    </clipPath>
  </defs>
</svg>