<svg width="1920" height="1080" fill="none" xmlns="http://www.w3.org/2000/svg">
  <g clip-path="url(#a)">
    <path d="M1923.5.7H-1.5V1079h1925V.7Z" fill="url(#b)"/>
    <path d="M1575.5 484.5h-22.1c-1 0-1.9-.9-1.9-1.9v-17.1h-42v-10h-1v10h-15v17.1c0 1-.8 1.9-1.9 1.9h-24.3c-1.6.1-2.9 1.3-3.3 2.8v151.2h-39.5c-1.1 0-2-.9-2-2v-24.3l-43.4-.4c-2.5 0-4.6-2.1-4.6-4.6v-33.3l-10-.4v-8h-1v7.4l-13 1.1v21.2c0 1.3-1.1 2.4-2.4 2.4h-30.6v-32h-2v32h-12.6c-1.3 0-2.4 1.1-2.4 2.4v61.5c0 2.2-1.8 4-4.1 4h-25.9v14.6c0 1.3-1.1 2.4-2.4 2.4h-26.2c-1.3 0-2.4-1.1-2.4-2.4v-26.6h-51.3c-3.7 0-6.7-3-6.7-6.7v-73.3h-55v-8h-1v8h-10l-.7 37.7-1.3 2.3-45.9.3v22.4c0 1.3-1 2.3-2.3 2.3h-36.4c-1.3 0-2.3-1-2.3-2.3V487.9c0-1.9-1.5-3.4-3.4-3.4h-14.6v-22h-86v22h-8v-19.9h-1v19.9h-8v162.3c0 1.5-1.2 2.7-2.7 2.7h-31.6c-1.5 0-2.7-1.2-2.7-2.7v-86.3h-46v-46c0-.7-.2-1-1.7-1H748c-.5.1-.8.5-.8.9v28.4c.1.4-.2.6-.5.6l-5.2-.1c-.4 0-.7-.3-1-.7v-60.1c.3-.7-1-1-1-1h-8v-18h-1v18H721c-.3 0-.5-.2-.5-.5v-11.2c0-.7-.6-1.3-1.3-1.3h-31.4c-.7 0-1.3.6-1.3 1.3v12.5h-16v115.2l-63-.1v-31.9h-2v32h-15v63.2c0 2.6-2.1 4.8-4.8 4.8h-24.2v13.6c0 1.9-1.5 3.4-3.4 3.4h-25.2c-1.9 0-3.4-1.5-3.4-3.4v-25.6h-52.2c-2.6 0-4.8-2.1-4.8-4.8v-75.2h-67v36.4c0 1.5-1.2 2.7-2.7 2.7l-45.3.9v18.8c0 3.4-2.8 6.2-6.2 6.2h-28.5c-3.4 0-6.2-2.8-6.2-6.2V484.5h-10v-20.3h-2v20.3h-26v-56h-1v56h-73v-26.4h-1v26.4h-.1c-4.4 0-7.9 3.5-7.9 7.9v153.3c0 2.1-1.7 3.8-3.8 3.8h-29.4c-2.1 0-3.8-1.7-3.8-3.8v-85.2h-121v98.9c0 2.8-2.3 5.1-5.1 5.1h-36v397h1925l-1.7-400H1887c-3.6 0-6.5-2.9-6.5-6.5v-56.1c0-.8-.6-1.4-1.4-1.4h-23.2c-2.4 0-4.4-2-4.4-4.4V491.5h-38v-9h-1v9h-10v51.7c0 .1-.1.3-.2.3h-.1l-28.4.1c-.1 0-.3-.1-.3-.2v-.1l-.2-20.5-75.1-.1v34.6c.3 1.8-1.2 3.2-2.9 3.2h-72.4v86c0 1.7-1.4 3.1-3.1 3.1l-32.2-.1c-1.7 0-3.1-1.4-3.1-3.1V484.5h-8" fill="url(#c)"/>
    <path d="M420.1 536.5h-2.2v36h2.2v-36Z" fill="url(#d)"/>
    <path d="M1133 551.5h-2.7v22h2.7v-22Z" fill="url(#e)"/>
    <path d="M1506.4 443.6h-1.5v21.1h1.5v-21.1Z" fill="url(#f)"/>
    <path d="M1504.4 454.6h36.2c6 0 10.9 4.9 10.9 10.9h-58c0-6 4.9-10.9 10.9-10.9ZM1374.5 601.6h37.1c6 0 10.9 4.9 10.9 10.9h-48v-10.9ZM1584.6 639h38.3v11h-38.3v-11ZM868.5 640h37v11h-37v-11ZM1709.1 511.9h53.3c6 0 10.9 4.9 10.9 10.9h-75.1c0-6 4.9-10.9 10.9-10.9ZM1357.5 569h10c3.9 0 7 3.1 7 7v3.9h-24.1V576c0-3.9 3.2-7 7.1-7ZM1181.6 642.8h47.1c6 0 10.9 4.9 10.9 10.9h-58v-10.9ZM1126.5 562.6h44.2c6 0 10.9 4.9 10.9 10.9h-66c0-6 4.8-10.9 10.9-10.9ZM1026.5 628.6h41v10.9h-41v-10.9ZM916.5 474h6v10.9h-16.9c0-6 4.9-10.9 10.9-10.9ZM822.6 550h35c6 0 10.9 4.9 10.9 10.9h-45.9V550ZM757.8 503.6h54c6 0 10.8 4.9 10.8 10.9H747c0-6 4.9-10.9 10.8-10.9ZM697.4 459.6h12.2c6 0 10.9 4.9 10.9 10.9h-34c0-6 4.9-10.9 10.9-10.9ZM601.4 587h69.1v11h-80c0-6.1 4.9-10.9 10.9-11ZM572.4 654.8h18.1v11h-29c0-6.1 4.8-11 10.9-11ZM529.3 674.8h32.2v10.9h-32.2v-10.9ZM316.6 628.5h40.9v10.9h-40.9v-10.9ZM158.6 641h37v11h-37v-11ZM368.4 604h37.1v10.9h-48c0-6 4.9-10.9 10.9-10.9ZM416.4 563.3h45.2c6 0 10.9 4.9 10.9 10.9h-67c0-6 4.9-10.9 10.9-10.9ZM720.5 472.7h9.1c6 0 10.9 4.9 10.9 10.9h-17.4c-1.4 0-2.6-1.2-2.6-2.6v-8.3ZM1281.4 654.6h19.3v10.9h-30.2c0-6 4.9-10.9 10.9-10.9ZM1239.6 673h30.9v10.9h-30.9V673ZM1551.5 475.4h22.2c6 0 10.9 4.9 10.9 10.9h-28.5c-2.5 0-4.6-2.1-4.6-4.6v-6.3Z" fill="#fff"/>
    <path d="M1838.1 465.2h-1.4v21.2h1.4v-21.2Z" fill="url(#g)"/>
    <path d="M1813.4 480.9h27.2c6 0 10.9 4.9 10.9 10.9h-48.9c0-6 4.8-10.9 10.8-10.9ZM1880.5 650.5h28.3c6 0 10.9 4.9 10.9 10.9h-39.2v-10.9ZM1851.5 587h18.1c6 0 10.9 4.9 10.9 10.9h-29V587ZM1802.5 533v10.9h-29V533h29ZM7.9 653.5h29.6v10.9H-3c0-6 4.9-10.9 10.9-10.9ZM472.5 642.6h46c6 0 10.9 4.9 10.9 10.9h-56.9v-10.9ZM1078.4 603.4h37.1-.7v10.9h-47.4c.1-6 5-10.9 11-10.9ZM1633.7 550.6h64.5v10.9h-75.5c.1-6 4.9-10.9 11-10.9ZM48.3 550h99.3c6 0 10.9 4.9 10.9 10.9H37.4c0-6 4.9-10.9 10.9-10.9ZM933.4 452.4h64.2c6 0 10.9 4.9 10.9 10.9h-86c0-6 4.9-10.9 10.9-10.9Z" fill="#fff"/>
    <path d="M1948.8 940.2h-1960V1086h1960V940.2Z" fill="url(#h)"/>
    <path d="M1023.9 484h-86.8c-1.4 0-2.6 1.1-2.6 2.6v20.6c0 1.4 1.1 2.6 2.6 2.6h86.8c1.4 0 2.6-1.1 2.6-2.6v-20.6c0-1.4-1-2.6-2.4-2.6h-.2Z" fill="url(#i)"/>
    <path d="M1023.9 523.9h-86.8c-1.4 0-2.6 1.1-2.6 2.6v20.6c0 1.4 1.1 2.6 2.6 2.6h86.8c1.4 0 2.6-1.1 2.6-2.6v-20.6c0-1.4-1-2.6-2.4-2.6h-.2Z" fill="url(#j)"/>
    <path d="M1023.9 564.7h-86.8c-1.4 0-2.6 1.1-2.6 2.6v20.6c0 1.4 1.1 2.6 2.6 2.6h86.8c1.4 0 2.6-1.1 2.6-2.6v-20.6c.1-1.4-1-2.5-2.3-2.6h-.3Z" fill="url(#k)"/>
    <path d="M1023.9 606h-86.8c-1.4 0-2.6 1.1-2.6 2.6v20.6c0 1.4 1.1 2.6 2.6 2.6h86.8c1.4 0 2.6-1.1 2.6-2.6v-20.6c0-1.4-1-2.6-2.4-2.6h-.2Z" fill="url(#l)"/>
    <path d="M1023.9 646h-86.8c-1.4 0-2.6 1.1-2.6 2.6v20.6c0 1.4 1.1 2.6 2.6 2.6h86.8c1.4 0 2.6-1.1 2.6-2.6v-20.6c0-1.4-1-2.6-2.4-2.6h-.2Z" fill="url(#m)"/>
    <path d="M284.7 525h-86.8c-1.4 0-2.6 1.1-2.6 2.6v20.6c0 1.4 1.1 2.6 2.6 2.6h86.8c1.4 0 2.6-1.1 2.6-2.6v-20.6c0-1.4-1-2.6-2.4-2.6h-.2Z" fill="url(#n)"/>
    <path d="M284.7 565.4h-86.8c-1.4 0-2.6 1.1-2.6 2.6v20.6c0 1.4 1.1 2.6 2.6 2.6h86.8c1.4 0 2.6-1.1 2.6-2.6V568c0-1.4-1-2.6-2.4-2.6h-.2Z" fill="url(#o)"/>
    <path d="M284.7 605.8h-86.8c-1.4 0-2.6 1.1-2.6 2.6V629c0 1.4 1.1 2.6 2.6 2.6h86.8c1.4 0 2.6-1.1 2.6-2.6v-20.6c.1-1.4-1-2.6-2.4-2.6-.1-.1-.1-.1-.2 0Z" fill="url(#p)"/>
    <path d="M284.7 646.1h-86.8c-1.4 0-2.6 1.1-2.6 2.6v20.6c0 1.4 1.1 2.6 2.6 2.6h86.8c1.4 0 2.6-1.1 2.6-2.6v-20.6c0-1.4-1-2.6-2.4-2.6h-.2Z" fill="url(#q)"/>
    <path d="M284.7 484.7h-86.8c-1.4 0-2.6 1.1-2.6 2.6v20.6c0 1.4 1.1 2.6 2.6 2.6h86.8c1.4 0 2.6-1.1 2.6-2.6v-20.6c0-1.4-1-2.6-2.4-2.6h-.2Z" fill="url(#r)"/>
    <path d="M284.7 686.5h-86.8c-1.4 0-2.6 1.1-2.6 2.6v20.6c0 1.4 1.1 2.6 2.6 2.6h86.8c1.4 0 2.6-1.1 2.6-2.6v-20.5c0-1.5-1.1-2.7-2.6-2.7Z" fill="url(#s)"/>
    <path d="M284.7 726.8h-86.8c-1.4 0-2.6 1.1-2.6 2.6V750c0 1.4 1.1 2.6 2.6 2.6h86.8c1.4 0 2.6-1.1 2.6-2.6v-20.6c0-1.4-1-2.6-2.4-2.6h-.2Z" fill="url(#t)"/>
    <path d="M1510.9 484.5h-46c-.5 0-1 .4-1 .9v14.5c0 .5.4 1 .9 1h46.1c.5 0 1-.4 1-.9v-14.5c0-.6-.4-1-1-1Z" fill="#E2EEFD"/>
    <path d="M1510.9 484.5h-46c-.5 0-1 .4-1 .9v14.5c0 .5.4 1 .9 1h46.1c.5 0 1-.4 1-.9v-14.5c0-.6-.4-1-1-1Z" fill="url(#u)"/>
    <path d="M1510.9 509.8h-46c-.5 0-1 .4-1 .9v14.5c0 .5.4 1 .9 1h46.1c.5 0 1-.4 1-.9v-14.5c0-.5-.4-1-1-1 .1 0 0 0 0 0Z" fill="#E2EEFD"/>
    <path d="M1510.9 509.8h-46c-.5 0-1 .4-1 .9v14.5c0 .5.4 1 .9 1h46.1c.5 0 1-.4 1-.9v-14.5c0-.5-.4-1-1-1 .1 0 0 0 0 0Z" fill="url(#v)"/>
    <path d="M1465 535.5h46c.5 0 1 .4 1 .9v14.5c0 .5-.4 1-.9 1H1465c-.5 0-1-.4-1-.9v-14.5c0-.6.4-1 1-1Z" fill="#E2EEFD"/>
    <path d="M1465 535.5h46c.5 0 1 .4 1 .9v14.5c0 .5-.4 1-.9 1H1465c-.5 0-1-.4-1-.9v-14.5c0-.6.4-1 1-1Z" fill="url(#w)"/>
    <path d="M1510.9 561.7h-46c-.5 0-1 .4-1 .9v14.5c0 .5.4 1 .9 1h46.1c.5 0 1-.4 1-.9v-14.5c0-.6-.4-1-1-1Z" fill="#E2EEFD"/>
    <path d="M1510.9 561.7h-46c-.5 0-1 .4-1 .9v14.5c0 .5.4 1 .9 1h46.1c.5 0 1-.4 1-.9v-14.5c0-.6-.4-1-1-1Z" fill="url(#x)"/>
    <path d="M1465 587h46c.5 0 1 .4 1 .9v14.5c0 .5-.4 1-.9 1H1465c-.5 0-1-.4-1-.9V588c0-.5.4-1 1-1Z" fill="#E2EEFD"/>
    <path d="M1465 587h46c.5 0 1 .4 1 .9v14.5c0 .5-.4 1-.9 1H1465c-.5 0-1-.4-1-.9V588c0-.5.4-1 1-1Z" fill="url(#y)"/>
    <path d="M1510.9 613.3h-46c-.5 0-1 .4-1 .9v14.5c0 .5.4 1 .9 1h46.1c.5 0 1-.4 1-.9v-14.5c0-.6-.4-1-1-1Z" fill="#E2EEFD"/>
    <path d="M1510.9 613.3h-46c-.5 0-1 .4-1 .9v14.5c0 .5.4 1 .9 1h46.1c.5 0 1-.4 1-.9v-14.5c0-.6-.4-1-1-1Z" fill="url(#z)"/>
    <path d="M1465 638.6h46c.5 0 1 .4 1 .9V654c0 .5-.4 1-.9 1H1465c-.5 0-1-.4-1-.9v-14.5c0-.5.4-1 1-1Z" fill="#E2EEFD"/>
    <path d="M1465 638.6h46c.5 0 1 .4 1 .9V654c0 .5-.4 1-.9 1H1465c-.5 0-1-.4-1-.9v-14.5c0-.5.4-1 1-1Z" fill="url(#A)"/>
    <path d="M1510.9 664.3h-46c-.5 0-1 .4-1 .9v14.5c0 .5.4 1 .9 1h46.1c.5 0 1-.4 1-.9v-14.5c0-.6-.4-1-1-1Z" fill="#E2EEFD"/>
    <path d="M1510.9 664.3h-46c-.5 0-1 .4-1 .9v14.5c0 .5.4 1 .9 1h46.1c.5 0 1-.4 1-.9v-14.5c0-.6-.4-1-1-1Z" fill="url(#B)"/>
    <path d="M1465 690.5h46c.5 0 1 .4 1 .9v14.5c0 .5-.4 1-.9 1H1465c-.5 0-1-.4-1-.9v-14.5c0-.6.4-1 1-1Z" fill="#E2EEFD"/>
    <path d="M1465 690.5h46c.5 0 1 .4 1 .9v14.5c0 .5-.4 1-.9 1H1465c-.5 0-1-.4-1-.9v-14.5c0-.6.4-1 1-1Z" fill="url(#C)"/>
    <path d="M1510.9 715.8h-46c-.5 0-1 .4-1 .9v14.5c0 .5.4 1 .9 1h46.1c.5 0 1-.4 1-.9v-14.5c0-.5-.4-1-1-1Z" fill="#E2EEFD"/>
    <path d="M1510.9 715.8h-46c-.5 0-1 .4-1 .9v14.5c0 .5.4 1 .9 1h46.1c.5 0 1-.4 1-.9v-14.5c0-.5-.4-1-1-1Z" fill="url(#D)"/>
    <path d="M1465 744.7h46c.5 0 1 .4 1 .9v14.5c0 .5-.4 1-.9 1H1465c-.5 0-1-.4-1-.9v-14.5c0-.5.4-1 1-1Z" fill="#E2EEFD"/>
    <path d="M1465 744.7h46c.5 0 1 .4 1 .9v14.5c0 .5-.4 1-.9 1H1465c-.5 0-1-.4-1-.9v-14.5c0-.5.4-1 1-1Z" fill="url(#E)"/>
    <path d="M1510.9 769.9h-46c-.5 0-1 .4-1 .9v14.5c0 .5.4 1 .9 1h46.1c.5 0 1-.4 1-.9v-14.5c0-.6-.4-1-1-1Z" fill="#E2EEFD"/>
    <path d="M1510.9 769.9h-46c-.5 0-1 .4-1 .9v14.5c0 .5.4 1 .9 1h46.1c.5 0 1-.4 1-.9v-14.5c0-.6-.4-1-1-1Z" fill="url(#F)"/>
    <path d="M1465 795.7h46c.5 0 1 .4 1 .9v14.5c0 .5-.4 1-.9 1H1465c-.5 0-1-.4-1-.9v-14.5c0-.5.4-1 1-1Z" fill="#E2EEFD"/>
    <path d="M1465 795.7h46c.5 0 1 .4 1 .9v14.5c0 .5-.4 1-.9 1H1465c-.5 0-1-.4-1-.9v-14.5c0-.5.4-1 1-1Z" fill="url(#G)"/>
    <path d="M1510.9 821.9h-46c-.5 0-1 .4-1 .9v14.5c0 .5.4 1 .9 1h46.1c.5 0 1-.4 1-.9v-14.5c0-.5-.4-1-1-1Z" fill="#E2EEFD"/>
    <path d="M1510.9 821.9h-46c-.5 0-1 .4-1 .9v14.5c0 .5.4 1 .9 1h46.1c.5 0 1-.4 1-.9v-14.5c0-.5-.4-1-1-1Z" fill="url(#H)"/>
    <path d="M1465 847.1h46c.5 0 1 .4 1 .9v14.5c0 .5-.4 1-.9 1H1465c-.5 0-1-.4-1-.9v-14.5c0-.6.4-1 1-1Z" fill="#E2EEFD"/>
    <path d="M1465 847.1h46c.5 0 1 .4 1 .9v14.5c0 .5-.4 1-.9 1H1465c-.5 0-1-.4-1-.9v-14.5c0-.6.4-1 1-1Z" fill="url(#I)"/>
    <path d="M1300.7 597.6h46c.5 0 1 .4 1 .9V613c0 .5-.4 1-.9 1h-46.1c-.5 0-1-.4-1-.9v-14.5c0-.6.4-1 1-1Z" fill="url(#J)"/>
    <path d="M1346.7 623.4h-46c-.5 0-1 .4-1 .9v14.5c0 .5.4 1 .9 1h46.1c.5 0 1-.4 1-.9v-14.5c0-.6-.5-1-1-1Z" fill="url(#K)"/>
    <path d="M1300.7 649.1h46c.5 0 1 .4 1 .9v14.5c0 .5-.4 1-.9 1h-46.1c-.5 0-1-.4-1-.9v-14.5c0-.5.4-1 1-1Z" fill="url(#L)"/>
    <path d="M1346.7 674.9h-46c-.5 0-1 .4-1 .9v14.5c0 .5.4 1 .9 1h46.1c.5 0 1-.4 1-.9v-14.5c0-.6-.4-1-1-1Z" fill="url(#M)"/>
    <path d="M1300.7 700.7h46c.5 0 1 .4 1 .9V716c0 .5-.4 1-.9 1h-46.1c-.5 0-1-.4-1-.9v-14.5c0-.5.4-.9 1-.9Z" fill="url(#N)"/>
    <path d="M1346.7 726.4h-46c-.5 0-1 .4-1 .9v14.5c0 .5.4 1 .9 1h46.1c.5 0 1-.4 1-.9v-14.5c0-.5-.5-1-1-1Z" fill="url(#O)"/>
    <path d="M794.1 513.7h-46c-.5 0-1 .4-1 .9v14.5c0 .5.4 1 .9 1h46.1c.5 0 1-.4 1-.9v-14.5c0-.5-.4-1-1-1 .1 0 0 0 0 0Z" fill="url(#P)"/>
    <path d="M794.1 539h-46c-.5 0-1 .4-1 .9v14.5c0 .5.4 1 .9 1h46.1c.5 0 1-.4 1-.9V540c0-.5-.4-1-1-1 .1 0 0 0 0 0Z" fill="url(#Q)"/>
    <path d="M748.2 564.7h46c.5 0 1 .4 1 .9v14.5c0 .5-.4 1-.9 1h-46.1c-.5 0-1-.4-1-.9v-14.5c0-.6.4-1 1-1Z" fill="#E2EEFD"/>
    <path d="M748.2 564.7h46c.5 0 1 .4 1 .9v14.5c0 .5-.4 1-.9 1h-46.1c-.5 0-1-.4-1-.9v-14.5c0-.6.4-1 1-1Z" fill="url(#R)"/>
    <path d="M794.1 590.9h-46c-.5 0-1 .4-1 .9v14.5c0 .5.4 1 .9 1h46.1c.5 0 1-.4 1-.9v-14.5c0-.5-.4-1-1-1 .1 0 0 0 0 0Z" fill="#E2EEFD"/>
    <path d="M794.1 590.9h-46c-.5 0-1 .4-1 .9v14.5c0 .5.4 1 .9 1h46.1c.5 0 1-.4 1-.9v-14.5c0-.5-.4-1-1-1 .1 0 0 0 0 0Z" fill="url(#S)"/>
    <path d="M748.2 616.2h46c.5 0 1 .4 1 .9v14.4c0 .5-.4 1-.9 1h-46.1c-.5 0-1-.4-1-.9v-14.5c0-.5.4-.9 1-.9Z" fill="#E2EEFD"/>
    <path d="M748.2 616.2h46c.5 0 1 .4 1 .9v14.4c0 .5-.4 1-.9 1h-46.1c-.5 0-1-.4-1-.9v-14.5c0-.5.4-.9 1-.9Z" fill="url(#T)"/>
    <path d="M794.1 642.5h-46c-.5 0-1 .4-1 .9v14.5c0 .5.4 1 .9 1h46.1c.5 0 1-.4 1-.9v-14.5c0-.5-.4-1-1-1 .1 0 0 0 0 0Z" fill="#E2EEFD"/>
    <path d="M794.1 642.5h-46c-.5 0-1 .4-1 .9v14.5c0 .5.4 1 .9 1h46.1c.5 0 1-.4 1-.9v-14.5c0-.5-.4-1-1-1 .1 0 0 0 0 0Z" fill="url(#U)"/>
    <path d="M748.2 667.7h46c.5 0 1 .4 1 .9v14.5c0 .5-.4 1-.9 1h-46.1c-.5 0-1-.4-1-.9v-14.5c0-.6.4-1 1-1Z" fill="#E2EEFD"/>
    <path d="M748.2 667.7h46c.5 0 1 .4 1 .9v14.5c0 .5-.4 1-.9 1h-46.1c-.5 0-1-.4-1-.9v-14.5c0-.6.4-1 1-1Z" fill="url(#V)"/>
    <path d="M794.1 693.5h-46c-.5 0-1 .4-1 .9v14.5c0 .5.4 1 .9 1h46.1c.5 0 1-.4 1-.9v-14.5c0-.6-.4-1-1-1Z" fill="#E2EEFD"/>
    <path d="M794.1 693.5h-46c-.5 0-1 .4-1 .9v14.5c0 .5.4 1 .9 1h46.1c.5 0 1-.4 1-.9v-14.5c0-.6-.4-1-1-1Z" fill="url(#W)"/>
    <path d="M748.2 719.7h46c.5 0 1 .4 1 .9v14.5c0 .5-.4 1-.9 1h-46.1c-.5 0-1-.4-1-.9v-14.5c0-.5.4-1 1-1-.1 0 0 0 0 0Z" fill="#E2EEFD"/>
    <path d="M748.2 719.7h46c.5 0 1 .4 1 .9v14.5c0 .5-.4 1-.9 1h-46.1c-.5 0-1-.4-1-.9v-14.5c0-.5.4-1 1-1-.1 0 0 0 0 0Z" fill="url(#X)"/>
    <path d="M794.1 745h-46c-.5 0-1 .4-1 .9v14.5c0 .5.4 1 .9 1h46.1c.5 0 1-.4 1-.9V746c0-.5-.4-1-1-1 .1 0 0 0 0 0Z" fill="#E2EEFD"/>
    <path d="M794.1 745h-46c-.5 0-1 .4-1 .9v14.5c0 .5.4 1 .9 1h46.1c.5 0 1-.4 1-.9V746c0-.5-.4-1-1-1 .1 0 0 0 0 0Z" fill="url(#Y)"/>
    <path d="M748.2 773.9h46c.5 0 1 .4 1 .9v14.5c0 .5-.4 1-.9 1h-46.1c-.5 0-1-.4-1-.9v-14.5c0-.5.4-1 1-1-.1 0 0 0 0 0Z" fill="#E2EEFD"/>
    <path d="M748.2 773.9h46c.5 0 1 .4 1 .9v14.5c0 .5-.4 1-.9 1h-46.1c-.5 0-1-.4-1-.9v-14.5c0-.5.4-1 1-1-.1 0 0 0 0 0Z" fill="url(#Z)"/>
    <path d="M794.1 799.1h-46c-.5 0-1 .4-1 .9v14.5c0 .5.4 1 .9 1h46.1c.5 0 1-.4 1-.9v-14.5c0-.6-.4-1-1-1Z" fill="#E2EEFD"/>
    <path d="M794.1 799.1h-46c-.5 0-1 .4-1 .9v14.5c0 .5.4 1 .9 1h46.1c.5 0 1-.4 1-.9v-14.5c0-.6-.4-1-1-1Z" fill="url(#aa)"/>
    <path d="M748.2 824.9h46c.5 0 1 .4 1 .9v14.5c0 .5-.4 1-.9 1h-46.1c-.5 0-1-.4-1-.9v-14.5c0-.5.4-1 1-1-.1 0 0 0 0 0Z" fill="#E2EEFD"/>
    <path d="M748.2 824.9h46c.5 0 1 .4 1 .9v14.5c0 .5-.4 1-.9 1h-46.1c-.5 0-1-.4-1-.9v-14.5c0-.5.4-1 1-1-.1 0 0 0 0 0Z" fill="url(#ab)"/>
    <path d="M794.1 851.1h-46c-.5 0-1 .4-1 .9v14.5c0 .5.4 1 .9 1h46.1c.5 0 1-.4 1-.9v-14.5c0-.5-.4-1-1-1 .1 0 0 0 0 0Z" fill="#E2EEFD"/>
    <path d="M794.1 851.1h-46c-.5 0-1 .4-1 .9v14.5c0 .5.4 1 .9 1h46.1c.5 0 1-.4 1-.9v-14.5c0-.5-.4-1-1-1 .1 0 0 0 0 0Z" fill="url(#ac)"/>
    <path d="M748.2 876.3h46c.5 0 1 .4 1 .9v14.5c0 .5-.4 1-.9 1h-46.1c-.5 0-1-.4-1-.9v-14.5c0-.6.4-1 1-1Z" fill="#E2EEFD"/>
    <path d="M748.2 876.3h46c.5 0 1 .4 1 .9v14.5c0 .5-.4 1-.9 1h-46.1c-.5 0-1-.4-1-.9v-14.5c0-.6.4-1 1-1Z" fill="url(#ad)"/>
    <path d="M671.3 481.1h46c.5 0 1 .4 1 .9v14.5c0 .5-.4 1-.9 1h-46.1c-.5 0-1-.4-1-.9v-14.5c0-.5.5-1 1-1Z" fill="#E2EEFD"/>
    <path d="M671.3 481.1h46c.5 0 1 .4 1 .9v14.5c0 .5-.4 1-.9 1h-46.1c-.5 0-1-.4-1-.9v-14.5c0-.5.5-1 1-1Z" fill="url(#ae)"/>
    <path d="M717.3 507.3h-46c-.5 0-1 .4-1 .9v14.5c0 .5.4 1 .9 1h46.1c.5 0 1-.4 1-.9v-14.5c0-.5-.5-1-1-1Z" fill="#E2EEFD"/>
    <path d="M717.3 507.3h-46c-.5 0-1 .4-1 .9v14.5c0 .5.4 1 .9 1h46.1c.5 0 1-.4 1-.9v-14.5c0-.5-.5-1-1-1Z" fill="url(#af)"/>
    <path d="M671.3 532.6h46c.5 0 1 .4 1 .9V548c0 .5-.4 1-.9 1h-46.1c-.5 0-1-.4-1-.9v-14.5c0-.6.4-1 1-1Z" fill="#E2EEFD"/>
    <path d="M671.3 532.6h46c.5 0 1 .4 1 .9V548c0 .5-.4 1-.9 1h-46.1c-.5 0-1-.4-1-.9v-14.5c0-.6.4-1 1-1Z" fill="url(#ag)"/>
    <path d="M717.3 558.9h-46c-.5 0-1 .4-1 .9v14.5c0 .5.4 1 .9 1h46.1c.5 0 1-.4 1-.9v-14.5c0-.5-.5-1-1-1Z" fill="#E2EEFD"/>
    <path d="M717.3 558.9h-46c-.5 0-1 .4-1 .9v14.5c0 .5.4 1 .9 1h46.1c.5 0 1-.4 1-.9v-14.5c0-.5-.5-1-1-1Z" fill="url(#ah)"/>
    <path d="M671.3 584.2h46c.5 0 1 .4 1 .9v14.5c0 .5-.4 1-.9 1h-46.1c-.5 0-1-.4-1-.9v-14.5c0-.6.4-1 1-1Z" fill="#E2EEFD"/>
    <path d="M671.3 584.2h46c.5 0 1 .4 1 .9v14.5c0 .5-.4 1-.9 1h-46.1c-.5 0-1-.4-1-.9v-14.5c0-.6.4-1 1-1Z" fill="url(#ai)"/>
    <path d="M717.3 609.9h-46c-.5 0-1 .4-1 .9v14.5c0 .5.4 1 .9 1h46.1c.5 0 1-.4 1-.9v-14.5c0-.5-.5-1-1-1Z" fill="#E2EEFD"/>
    <path d="M717.3 609.9h-46c-.5 0-1 .4-1 .9v14.5c0 .5.4 1 .9 1h46.1c.5 0 1-.4 1-.9v-14.5c0-.5-.5-1-1-1Z" fill="url(#aj)"/>
    <path d="M671.3 636.1h46c.5 0 1 .4 1 .9v14.5c0 .5-.4 1-.9 1h-46.1c-.5 0-1-.4-1-.9v-14.5c0-.5.5-1 1-1Z" fill="#E2EEFD"/>
    <path d="M671.3 636.1h46c.5 0 1 .4 1 .9v14.5c0 .5-.4 1-.9 1h-46.1c-.5 0-1-.4-1-.9v-14.5c0-.5.5-1 1-1Z" fill="url(#ak)"/>
    <path d="M1848.9 552.8h-86.8c-1.4 0-2.6 1.1-2.6 2.6V576c0 1.4 1.1 2.6 2.6 2.6h86.8c1.4 0 2.6-1.1 2.6-2.6v-20.6c0-1.4-1.2-2.6-2.6-2.6Z" fill="url(#al)"/>
    <path d="M1848.9 592.7h-86.8c-1.4 0-2.6 1.1-2.6 2.6v20.6c0 1.4 1.1 2.6 2.6 2.6h86.8c1.4 0 2.6-1.1 2.6-2.6v-20.6c0-1.4-1.2-2.6-2.6-2.6Z" fill="url(#am)"/>
    <path d="M1848.9 633.5h-86.8c-1.4 0-2.6 1.1-2.6 2.6v20.6c0 1.4 1.1 2.6 2.6 2.6h86.8c1.4 0 2.6-1.1 2.6-2.6v-20.6c0-1.4-1.2-2.6-2.6-2.6Z" fill="url(#an)"/>
    <path d="M1848.9 674.8h-86.8c-1.4 0-2.6 1.1-2.6 2.6V698c0 1.4 1.1 2.6 2.6 2.6h86.8c1.4 0 2.6-1.1 2.6-2.6v-20.6c0-1.4-1.2-2.6-2.6-2.6Z" fill="url(#ao)"/>
    <path d="M1848.9 714.8h-86.8c-1.4 0-2.6 1.1-2.6 2.6V738c0 1.4 1.1 2.6 2.6 2.6h86.8c1.4 0 2.6-1.1 2.6-2.6v-20.6c0-1.4-1.2-2.6-2.6-2.6Z" fill="url(#ap)"/>
    <path d="M206.4 476h99.3c6 0 10.9 4.9 10.9 10.9H195.5c0-6.1 4.9-10.9 10.9-10.9ZM1422.5 629h41.5v10.9h-41.5V629Z" fill="#fff"/>
    <path d="M2078 1079c-93.8-87.3-215.7-139.8-348.5-138.8-90 .6-174.7 25.6-248.7 69.1-59.2 34.8-128.5 44-193.7 25.7-100.5-28.2-207.3-23.8-305.2 12.5a245.41 245.41 0 0 1-171.4 0 493.87 493.87 0 0 0-305.2-12.5c-65.2 18.3-134.4 9.1-193.7-25.7-74.1-43.5-158.7-68.5-248.7-69.1-132.8-.9-254.8 51.5-348.5 138.8H2078Z" fill="url(#aq)"/>
    <path d="M270.8 1098.5c1.2.9.4 2.4-1.3 2.4-6.6 0-19.2-1.3-27.3-10.4l18.5 38.2H93.4l18.5-38.2c-8.3 6.3-20.7 10.5-27.3 10.4-1.7 0-2.5-1.6-1.3-2.4 42.1-31.1 53.1-69.9 53.1-69.9-9.3 5.6-15.6 5.6-21.6 6.5-1.8.3-3-1.2-1.9-2.3 28.6-26.7 39.2-67 39.2-67-6.8 7.2-16 8.8-21.1 9.1-1.6.1-2.6-1.2-1.7-2.2 21.9-23.9 29.4-63 29.4-63-5.2 6.1-10.7 7.9-14.3 8.3-1.6.2-2.9-1.2-1.9-2.2 16.7-18.3 28.8-58.7 32.9-74.1.4-1.3 2.8-1.3 3.2 0 4.2 15.4 16.2 55.7 32.9 74.1.9 1-.3 2.4-1.9 2.2-3.6-.5-9.1-2.2-14.3-8.3 0 0 7.5 39.1 29.4 63 .9 1-.1 2.3-1.7 2.2-5.1-.3-14.2-2-21.1-9.1 0 0 10.6 40.3 39.2 67 1.1 1.1-.1 2.6-1.9 2.3-6-1-16.1-3.8-23.4-11.8 0 0 12.9 44.1 55 75.2Z" fill="url(#ar)"/>
    <path d="M662.4 1155.5c1.2.9.4 2.4-1.3 2.4-6.6 0-19.2-1.3-27.3-10.4l18.5 38.2H485l18.5-38.2c-8.3 6.3-20.7 10.5-27.3 10.4-1.7 0-2.5-1.6-1.3-2.4 42.1-31.1 53.1-69.9 53.1-69.9-9.3 5.6-15.6 5.6-21.6 6.5-1.8.3-3-1.2-1.9-2.3 28.6-26.7 39.2-67 39.2-67-6.8 7.2-16 8.8-21.1 9.1-1.6.1-2.6-1.2-1.7-2.2 21.9-23.9 29.4-63 29.4-63-5.2 6.1-10.7 7.9-14.3 8.3-1.7.2-2.8-1.2-1.9-2.2 16.7-18.3 28.8-58.7 32.9-74.1.3-1.3 2.8-1.3 3.2 0 4.2 15.4 16.2 55.7 32.9 74.1.9 1-.3 2.4-1.9 2.2-3.6-.5-9.1-2.2-14.3-8.3 0 0 7.5 39.1 29.4 63 .9 1-.1 2.3-1.7 2.2-5.1-.3-14.2-2-21.1-9.1 0 0 10.6 40.3 39.2 67 1.1 1.1-.1 2.6-1.9 2.3-6-1-16.1-3.8-23.5-11.8.2 0 13 44.1 55.1 75.2Z" fill="url(#as)"/>
    <path d="M1168.6 1093.1c1.6 1.2.5 3.2-1.7 3.2-8.6 0-24.9-1.7-35.4-13.5l24 49.4H938.6l24-49.4c-10.8 8.2-26.8 13.6-35.4 13.5-2.2 0-3.3-2-1.7-3.2 54.5-40.3 68.8-90.6 68.8-90.6-12.1 7.2-20.2 7.2-28 8.5-2.3.4-3.9-1.6-2.4-3 37-34.6 50.8-86.8 50.8-86.8-8.8 9.3-20.7 11.4-27.3 11.8-2.1.1-3.4-1.6-2.2-2.9 28.3-31 38.1-81.7 38.1-81.7-6.7 7.9-13.8 10.2-18.5 10.8-2.1.3-3.7-1.5-2.5-2.9 21.6-23.8 37.3-76 42.7-96 .5-1.7 3.7-1.7 4.2 0 5.4 20 21 72.2 42.7 96 1.2 1.3-.3 3.1-2.5 2.9-4.7-.6-11.8-2.9-18.5-10.8 0 0 9.8 50.7 38.1 81.7 1.2 1.3-.2 3-2.2 2.9-6.6-.4-18.5-2.5-27.3-11.8 0 0 13.8 52.2 50.8 86.8 1.5 1.4-.2 3.4-2.4 3-7.8-1.3-20.9-4.9-30.4-15.3-.2 0 16.6 57.2 71.1 97.4Z" fill="url(#at)"/>
    <path d="M1271.2 1155.5c1.2.9.4 2.4-1.3 2.4-6.6 0-19.2-1.3-27.3-10.4l18.5 38.2h-167.3l18.5-38.2c-8.3 6.3-20.7 10.5-27.3 10.4-1.7 0-2.5-1.6-1.3-2.4 42.1-31.1 53.1-69.9 53.1-69.9-9.3 5.6-15.6 5.6-21.6 6.6-1.8.3-3-1.2-1.9-2.3 28.6-26.7 39.2-67 39.2-67-6.8 7.2-16 8.8-21.1 9.1-1.6.1-2.6-1.2-1.7-2.2 21.9-23.9 29.4-63 29.4-63-5.2 6.1-10.7 7.9-14.3 8.3-1.7.2-2.8-1.2-1.9-2.2 16.7-18.3 28.8-58.7 32.9-74.1.3-1.3 2.8-1.3 3.2 0 4.2 15.4 16.2 55.7 32.9 74.1.9 1-.3 2.4-1.9 2.2-3.6-.5-9.1-2.3-14.3-8.3 0 0 7.5 39.1 29.4 63 .9 1-.1 2.3-1.7 2.2-5.1-.3-14.2-2-21.1-9.1 0 0 10.6 40.3 39.2 67 1.1 1.1-.1 2.6-1.9 2.3-6-1-16.1-3.8-23.4-11.8 0-.1 12.9 44 55 75.1Z" fill="url(#au)"/>
    <path d="M1668.4 1098.5c-1.2.9-.4 2.4 1.3 2.4 6.6 0 19.2-1.3 27.3-10.4l-18.5 38.2h167.3l-18.5-38.2c8.3 6.3 20.7 10.5 27.3 10.4 1.7 0 2.5-1.6 1.3-2.4-42.1-31.1-53.1-69.9-53.1-69.9 9.3 5.6 15.6 5.6 21.6 6.6 1.8.3 3-1.2 1.9-2.3-28.6-26.7-39.2-67-39.2-67 6.8 7.2 16 8.8 21.1 9.1 1.6.1 2.7-1.2 1.7-2.2-21.8-23.9-29.4-63-29.4-63 5.2 6.1 10.7 7.9 14.3 8.3 1.7.2 2.9-1.2 1.9-2.2-16.7-18.3-28.8-58.7-32.9-74.1-.3-1.3-2.8-1.3-3.2 0-4.2 15.4-16.2 55.7-32.9 74.1-.9 1 .3 2.4 1.9 2.2 3.6-.5 9.1-2.3 14.3-8.3 0 0-7.5 39.1-29.4 63-.9 1 .1 2.3 1.7 2.2 5.1-.3 14.2-2 21.1-9.1 0 0-10.6 40.3-39.2 67-1.1 1.1.1 2.6 1.9 2.3 6-1 16.1-3.8 23.4-11.8 0-.1-12.9 44-55 75.1Z" fill="url(#av)"/>
    <path d="M1732.9 1093.1c1.6 1.2.5 3.2-1.7 3.2-8.6 0-24.9-1.7-35.4-13.5l24 49.4h-216.9l24-49.4c-10.8 8.2-26.8 13.6-35.4 13.5-2.2 0-3.3-2-1.7-3.2 54.5-40.3 68.8-90.6 68.8-90.6-12.1 7.2-20.2 7.2-28 8.5-2.3.4-3.9-1.6-2.4-3 37-34.6 50.8-86.8 50.8-86.8-8.8 9.3-20.7 11.4-27.3 11.8-2.1.1-3.4-1.6-2.2-2.9 28.3-31 38.1-81.7 38.1-81.7-6.7 7.9-13.8 10.2-18.5 10.8-2.1.3-3.7-1.5-2.5-2.9 21.6-23.8 37.3-76 42.7-96 .5-1.7 3.7-1.7 4.2 0 5.4 20 21 72.2 42.7 96 1.2 1.3-.3 3.1-2.5 2.9-4.7-.6-11.8-2.9-18.5-10.8 0 0 9.8 50.7 38.1 81.7 1.2 1.3-.2 3-2.2 2.9-6.6-.4-18.5-2.5-27.3-11.8 0 0 13.8 52.2 50.8 86.8 1.5 1.4-.2 3.4-2.4 3-7.8-1.3-20.9-4.9-30.4-15.3-.1 0 16.6 57.2 71.1 97.4Z" fill="url(#aw)"/>
    <path d="M555.4 1093.1c1.6 1.2.5 3.2-1.7 3.2-8.6 0-24.9-1.7-35.4-13.5l24 49.4H325.5l24-49.4c-10.8 8.2-26.8 13.6-35.4 13.5-2.2 0-3.3-2-1.7-3.2 54.5-40.3 68.8-90.6 68.8-90.6-12.1 7.2-20.2 7.2-28 8.5-2.3.4-3.9-1.6-2.4-3 37-34.6 50.8-86.8 50.8-86.8-8.8 9.3-20.7 11.4-27.3 11.8-2.1.1-3.4-1.6-2.2-2.9 28.3-31 38.1-81.7 38.1-81.7-6.7 7.9-13.8 10.2-18.5 10.8-2.1.3-3.7-1.5-2.5-2.9 21.6-23.8 37.3-76 42.7-96 .5-1.7 3.7-1.7 4.2 0 5.4 20 21 72.2 42.7 96 1.2 1.3-.3 3.1-2.5 2.9-4.7-.6-11.8-2.9-18.5-10.8 0 0 9.8 50.7 38.1 81.7 1.2 1.3-.2 3-2.2 2.9-6.6-.4-18.5-2.5-27.3-11.8 0 0 13.8 52.2 50.8 86.8 1.5 1.4-.2 3.4-2.4 3-7.8-1.3-20.9-4.9-30.4-15.3-.2 0 16.5 57.2 71 97.4Z" fill="url(#ax)"/>
    <path d="M1841.4 830.9c0 .6-.5 1.1-1.1 1.1h-4.3c-.6 0-1.1-.4-1.2-1.1V822c0-.6.6-1.1 1.2-1.1h4.2c.6 0 1.1.4 1.2 1.1v8.9ZM1722.1 605v8.9c0 .7-.6 1.1-1.2 1.1h-4.2c-.6 0-1.1-.4-1.2-1.1V605c0-.6.6-1.1 1.2-1.1h4.2c.6 0 1.1.4 1.2 1.1ZM1667.1 696v8.9c0 .6-.5 1.1-1.1 1.1h-4.3c-.6 0-1.1-.4-1.2-1.1V696c0-.6.6-1.1 1.2-1.1h4.2c.6 0 1.1.4 1.2 1.1ZM1558.1 822v8.9c0 .6-.5 1.1-1.1 1.1h-4.3c-.6 0-1.1-.4-1.2-1.1V822c0-.6.6-1.1 1.2-1.1h4.2c.6 0 1.1.4 1.2 1.1ZM1558.1 538v8.9c0 .7-.6 1.1-1.2 1.1h-4.2c-.6 0-1.1-.4-1.2-1.1V538c0-.6.6-1.1 1.2-1.1h4.2c.6 0 1.1.4 1.2 1.1ZM1399.1 766v8.9c0 .6-.5 1.1-1.1 1.1h-4.3c-.6 0-1.1-.4-1.2-1.1V766c0-.6.6-1.1 1.2-1.1h4.2c.6 0 1.1.4 1.2 1.1ZM1399.1 645v8.9c0 .6-.5 1.1-1.1 1.1h-4.3c-.6 0-1.1-.4-1.2-1.1V645c0-.6.6-1.1 1.2-1.1h4.2c.6 0 1.1.4 1.2 1.1ZM1289.1 880v8.9c0 .6-.5 1.1-1.1 1.1h-4.3c-.6 0-1.1-.4-1.2-1.1V880c0-.6.6-1.1 1.2-1.1h4.2c.6 0 1.1.4 1.2 1.1ZM1214.2 766v8.9c0 .6-.5 1.1-1.1 1.1h-4.3c-.6 0-1.1-.4-1.2-1.1V766c0-.6.6-1.1 1.2-1.1h4.2c.6 0 1.1.4 1.2 1.1ZM1160.1 603v8.9c0 .6-.5 1.1-1.1 1.1h-4.3c-.6 0-1.1-.4-1.2-1.1V603c0-.6.6-1.1 1.2-1.1h4.2c.6 0 1.1.4 1.2 1.1ZM1103.1 674v8.9c0 .7-.6 1.1-1.2 1.1h-4.2c-.6 0-1.1-.4-1.2-1.1V674c0-.6.6-1.1 1.2-1.1h4.2c.6 0 1.1.4 1.2 1.1ZM918.8 822v8.9c0 .6-.5 1.1-1.1 1.1h-4.3c-.6 0-1.1-.4-1.2-1.1V822c0-.6.6-1.1 1.2-1.1h4.2c.6 0 1.1.4 1.2 1.1ZM842.1 592v8.9c0 .7-.6 1.1-1.2 1.1h-4.2c-.6 0-1.1-.4-1.2-1.1V592c0-.6.6-1.1 1.2-1.1h4.2c.6 0 1.1.4 1.2 1.1ZM644 803v8.9c0 .6-.5 1.1-1.1 1.1h-4.3c-.6 0-1.1-.4-1.2-1.1V803c0-.6.6-1.1 1.2-1.1h4.2c.6 0 1.1.4 1.2 1.1ZM637 654v8.9c0 .7-.6 1.1-1.2 1.1h-4.2c-.6 0-1.1-.4-1.2-1.1V654c0-.6.6-1.1 1.2-1.1h4.2c.6 0 1.1.4 1.2 1.1ZM442.5 609v8.9c0 .6-.5 1.1-1.1 1.1h-4.3c-.6 0-1.1-.4-1.2-1.1V609c0-.6.6-1.1 1.2-1.1h4.2c.6 0 1.1.4 1.2 1.1ZM382.8 730v8.9c0 .6-.5 1.1-1.1 1.1h-4.3c-.6 0-1.1-.4-1.2-1.1V730c0-.6.6-1.1 1.2-1.1h4.2c.6 0 1.1.4 1.2 1.1ZM319.9 875v8.9c0 .6-.5 1.1-1.1 1.1h-4.3c-.6 0-1.1-.4-1.2-1.1V875c0-.6.6-1.1 1.2-1.1h4.2c.6 0 1.1.4 1.2 1.1ZM121.1 591v8.9c0 .6-.5 1.1-1.1 1.1h-4.3c-.6 0-1.1-.4-1.2-1.1V591c0-.6.6-1.1 1.2-1.1h4.2c.6 0 1.1.4 1.2 1.1ZM92.1 791v8.9c0 .6-.5 1.1-1.1 1.1h-4.3c-.6 0-1.1-.4-1.2-1.1V791c0-.6.6-1.1 1.2-1.1h4.2c.6 0 1.1.4 1.2 1.1ZM92.1 653v8.9c0 .6-.5 1.1-1.1 1.1h-4.3c-.6 0-1.1-.4-1.2-1.1V653c0-.6.6-1.1 1.2-1.1h4.2c.6 0 1.1.4 1.2 1.1Z" fill="#A2B9FF"/>
  </g>
  <defs>
    <linearGradient id="b" x1="961.409" y1="775.99" x2="957.649" y2="-1393.35" gradientUnits="userSpaceOnUse">
      <stop stop-color="#E0CED6"/>
      <stop offset=".16" stop-color="#D5E5FB"/>
      <stop offset=".48" stop-color="#6A8EEE"/>
    </linearGradient>
    <linearGradient id="c" x1="959" y1="1322.04" x2="959" y2="272.45" gradientUnits="userSpaceOnUse">
      <stop stop-color="#D5E5FB"/>
      <stop offset=".9" stop-color="#A0C8FF"/>
    </linearGradient>
    <linearGradient id="d" x1="417.93" y1="554.5" x2="420.15" y2="554.5" gradientUnits="userSpaceOnUse">
      <stop stop-color="#D5E5FB"/>
      <stop offset=".9" stop-color="#A0C8FF"/>
    </linearGradient>
    <linearGradient id="e" x1="1131.65" y1="542.44" x2="1131.65" y2="578.92" gradientUnits="userSpaceOnUse">
      <stop stop-color="#D5E5FB"/>
      <stop offset=".9" stop-color="#A0C8FF"/>
    </linearGradient>
    <linearGradient id="f" x1="1504.91" y1="454.15" x2="1506.44" y2="454.15" gradientUnits="userSpaceOnUse">
      <stop stop-color="#D5E5FB"/>
      <stop offset=".9" stop-color="#A0C8FF"/>
    </linearGradient>
    <linearGradient id="g" x1="1836.66" y1="475.8" x2="1838.06" y2="475.8" gradientUnits="userSpaceOnUse">
      <stop stop-color="#D5E5FB"/>
      <stop offset=".9" stop-color="#A0C8FF"/>
    </linearGradient>
    <linearGradient id="h" x1="968.8" y1="940.2" x2="968.8" y2="1086" gradientUnits="userSpaceOnUse">
      <stop stop-color="#E3EAFF"/>
      <stop offset="1" stop-color="#A0C8FF"/>
    </linearGradient>
    <linearGradient id="i" x1="926.941" y1="315.663" x2="1038.77" y2="694.043" gradientUnits="userSpaceOnUse">
      <stop offset=".32" stop-color="#FFCBBD"/>
      <stop offset=".61" stop-color="#FFF8F6"/>
      <stop offset="1" stop-color="#BDD9FF"/>
    </linearGradient>
    <linearGradient id="j" x1="916.09" y1="318.863" x2="1027.93" y2="697.253" gradientUnits="userSpaceOnUse">
      <stop offset=".32" stop-color="#FFCBBD"/>
      <stop offset=".61" stop-color="#FFF8F6"/>
      <stop offset="1" stop-color="#BDD9FF"/>
    </linearGradient>
    <linearGradient id="k" x1="905.023" y1="322.14" x2="1016.85" y2="700.52" gradientUnits="userSpaceOnUse">
      <stop offset=".32" stop-color="#FFCBBD"/>
      <stop offset=".61" stop-color="#FFF8F6"/>
      <stop offset="1" stop-color="#BDD9FF"/>
    </linearGradient>
    <linearGradient id="l" x1="893.78" y1="325.463" x2="1005.61" y2="703.843" gradientUnits="userSpaceOnUse">
      <stop offset=".32" stop-color="#FFCBBD"/>
      <stop offset=".61" stop-color="#FFF8F6"/>
      <stop offset="1" stop-color="#BDD9FF"/>
    </linearGradient>
    <linearGradient id="m" x1="882.907" y1="328.674" x2="994.737" y2="707.054" gradientUnits="userSpaceOnUse">
      <stop offset=".32" stop-color="#FFCBBD"/>
      <stop offset=".61" stop-color="#FFF8F6"/>
      <stop offset="1" stop-color="#BDD9FF"/>
    </linearGradient>
    <linearGradient id="n" x1="197.307" y1="422.73" x2="326.947" y2="762.05" gradientUnits="userSpaceOnUse">
      <stop stop-color="#FFCBBD"/>
      <stop offset=".61" stop-color="#FFF8F6"/>
      <stop offset="1" stop-color="#BDD9FF"/>
    </linearGradient>
    <linearGradient id="o" x1="183.687" y1="427.477" x2="313.327" y2="766.807" gradientUnits="userSpaceOnUse">
      <stop stop-color="#FFCBBD"/>
      <stop offset=".61" stop-color="#FFF8F6"/>
      <stop offset="1" stop-color="#BDD9FF"/>
    </linearGradient>
    <linearGradient id="p" x1="169.887" y1="431.707" x2="299.527" y2="771.027" gradientUnits="userSpaceOnUse">
      <stop stop-color="#FFCBBD"/>
      <stop offset=".61" stop-color="#FFF8F6"/>
      <stop offset="1" stop-color="#BDD9FF"/>
    </linearGradient>
    <linearGradient id="q" x1="156.576" y1="437.238" x2="286.226" y2="776.558" gradientUnits="userSpaceOnUse">
      <stop stop-color="#FFCBBD"/>
      <stop offset=".61" stop-color="#FFF8F6"/>
      <stop offset="1" stop-color="#BDD9FF"/>
    </linearGradient>
    <linearGradient id="r" x1="224.914" y1="421.34" x2="306.074" y2="798.999" gradientUnits="userSpaceOnUse">
      <stop stop-color="#FFCBBD"/>
      <stop offset=".61" stop-color="#FFF8F6"/>
      <stop offset="1" stop-color="#BDD9FF"/>
    </linearGradient>
    <linearGradient id="s" x1="183.429" y1="430.148" x2="264.589" y2="807.798" gradientUnits="userSpaceOnUse">
      <stop stop-color="#FFCBBD"/>
      <stop offset=".61" stop-color="#FFF8F6"/>
      <stop offset="1" stop-color="#BDD9FF"/>
    </linearGradient>
    <linearGradient id="t" x1="175.224" y1="432.257" x2="256.394" y2="809.916" gradientUnits="userSpaceOnUse">
      <stop stop-color="#FFCBBD"/>
      <stop offset=".61" stop-color="#FFF8F6"/>
      <stop offset="1" stop-color="#BDD9FF"/>
    </linearGradient>
    <linearGradient id="u" x1="1456.12" y1="430.24" x2="1595.43" y2="703.95" gradientUnits="userSpaceOnUse">
      <stop stop-color="#FFCBBD"/>
      <stop offset=".61" stop-color="#FFF8F6"/>
      <stop offset="1" stop-color="#BDD9FF"/>
    </linearGradient>
    <linearGradient id="v" x1="1446.08" y1="435.831" x2="1585.39" y2="709.541" gradientUnits="userSpaceOnUse">
      <stop stop-color="#FFCBBD"/>
      <stop offset=".61" stop-color="#FFF8F6"/>
      <stop offset="1" stop-color="#BDD9FF"/>
    </linearGradient>
    <linearGradient id="w" x1="1435.96" y1="441.459" x2="1575.27" y2="715.169" gradientUnits="userSpaceOnUse">
      <stop stop-color="#FFCBBD"/>
      <stop offset=".61" stop-color="#FFF8F6"/>
      <stop offset="1" stop-color="#BDD9FF"/>
    </linearGradient>
    <linearGradient id="x" x1="1425.51" y1="447.283" x2="1564.81" y2="720.992" gradientUnits="userSpaceOnUse">
      <stop stop-color="#FFCBBD"/>
      <stop offset=".61" stop-color="#FFF8F6"/>
      <stop offset="1" stop-color="#BDD9FF"/>
    </linearGradient>
    <linearGradient id="y" x1="1415.54" y1="452.829" x2="1554.85" y2="726.55" gradientUnits="userSpaceOnUse">
      <stop stop-color="#FFCBBD"/>
      <stop offset=".61" stop-color="#FFF8F6"/>
      <stop offset="1" stop-color="#BDD9FF"/>
    </linearGradient>
    <linearGradient id="z" x1="1405.05" y1="458.681" x2="1544.35" y2="732.391" gradientUnits="userSpaceOnUse">
      <stop stop-color="#FFCBBD"/>
      <stop offset=".61" stop-color="#FFF8F6"/>
      <stop offset="1" stop-color="#BDD9FF"/>
    </linearGradient>
    <linearGradient id="A" x1="1395.08" y1="464.231" x2="1534.39" y2="737.941" gradientUnits="userSpaceOnUse">
      <stop stop-color="#FFCBBD"/>
      <stop offset=".61" stop-color="#FFF8F6"/>
      <stop offset="1" stop-color="#BDD9FF"/>
    </linearGradient>
    <linearGradient id="B" x1="1384.81" y1="469.929" x2="1524.12" y2="743.649" gradientUnits="userSpaceOnUse">
      <stop stop-color="#FFCBBD"/>
      <stop offset=".61" stop-color="#FFF8F6"/>
      <stop offset="1" stop-color="#BDD9FF"/>
    </linearGradient>
    <linearGradient id="C" x1="1374.49" y1="475.688" x2="1513.8" y2="749.398" gradientUnits="userSpaceOnUse">
      <stop stop-color="#FFCBBD"/>
      <stop offset=".61" stop-color="#FFF8F6"/>
      <stop offset="1" stop-color="#BDD9FF"/>
    </linearGradient>
    <linearGradient id="D" x1="1364.38" y1="481.309" x2="1503.69" y2="755.029" gradientUnits="userSpaceOnUse">
      <stop stop-color="#FFCBBD"/>
      <stop offset=".61" stop-color="#FFF8F6"/>
      <stop offset="1" stop-color="#BDD9FF"/>
    </linearGradient>
    <linearGradient id="E" x1="1353" y1="487.651" x2="1492.31" y2="761.37" gradientUnits="userSpaceOnUse">
      <stop stop-color="#FFCBBD"/>
      <stop offset=".61" stop-color="#FFF8F6"/>
      <stop offset="1" stop-color="#BDD9FF"/>
    </linearGradient>
    <linearGradient id="F" x1="1342.94" y1="493.263" x2="1482.25" y2="766.972" gradientUnits="userSpaceOnUse">
      <stop stop-color="#FFCBBD"/>
      <stop offset=".61" stop-color="#FFF8F6"/>
      <stop offset="1" stop-color="#BDD9FF"/>
    </linearGradient>
    <linearGradient id="G" x1="1332.77" y1="498.92" x2="1472.08" y2="772.629" gradientUnits="userSpaceOnUse">
      <stop stop-color="#FFCBBD"/>
      <stop offset=".61" stop-color="#FFF8F6"/>
      <stop offset="1" stop-color="#BDD9FF"/>
    </linearGradient>
    <linearGradient id="H" x1="1322.31" y1="504.741" x2="1461.61" y2="778.449" gradientUnits="userSpaceOnUse">
      <stop stop-color="#FFCBBD"/>
      <stop offset=".61" stop-color="#FFF8F6"/>
      <stop offset="1" stop-color="#BDD9FF"/>
    </linearGradient>
    <linearGradient id="I" x1="1312.39" y1="510.27" x2="1451.7" y2="783.98" gradientUnits="userSpaceOnUse">
      <stop stop-color="#FFCBBD"/>
      <stop offset=".61" stop-color="#FFF8F6"/>
      <stop offset="1" stop-color="#BDD9FF"/>
    </linearGradient>
    <linearGradient id="J" x1="1251.26" y1="463.489" x2="1390.58" y2="737.199" gradientUnits="userSpaceOnUse">
      <stop stop-color="#FFCBBD"/>
      <stop offset=".61" stop-color="#FFF8F6"/>
      <stop offset="1" stop-color="#BDD9FF"/>
    </linearGradient>
    <linearGradient id="K" x1="1240.82" y1="468.76" x2="1380.13" y2="742.47" gradientUnits="userSpaceOnUse">
      <stop stop-color="#FFCBBD"/>
      <stop offset=".61" stop-color="#FFF8F6"/>
      <stop offset="1" stop-color="#BDD9FF"/>
    </linearGradient>
    <linearGradient id="L" x1="1230.81" y1="474.795" x2="1370.12" y2="748.505" gradientUnits="userSpaceOnUse">
      <stop stop-color="#FFCBBD"/>
      <stop offset=".61" stop-color="#FFF8F6"/>
      <stop offset="1" stop-color="#BDD9FF"/>
    </linearGradient>
    <linearGradient id="M" x1="1220.57" y1="480.455" x2="1359.88" y2="754.165" gradientUnits="userSpaceOnUse">
      <stop stop-color="#FFCBBD"/>
      <stop offset=".61" stop-color="#FFF8F6"/>
      <stop offset="1" stop-color="#BDD9FF"/>
    </linearGradient>
    <linearGradient id="N" x1="1210.2" y1="485.844" x2="1349.5" y2="759.553" gradientUnits="userSpaceOnUse">
      <stop stop-color="#FFCBBD"/>
      <stop offset=".61" stop-color="#FFF8F6"/>
      <stop offset="1" stop-color="#BDD9FF"/>
    </linearGradient>
    <linearGradient id="O" x1="1200.18" y1="491.928" x2="1339.49" y2="765.637" gradientUnits="userSpaceOnUse">
      <stop stop-color="#FFCBBD"/>
      <stop offset=".61" stop-color="#FFF8F6"/>
      <stop offset="1" stop-color="#BDD9FF"/>
    </linearGradient>
    <linearGradient id="P" x1="744.659" y1="403.06" x2="835.548" y2="811.569" gradientUnits="userSpaceOnUse">
      <stop stop-color="#FFCBBD"/>
      <stop offset=".61" stop-color="#FFF8F6"/>
      <stop offset="1" stop-color="#BDD9FF"/>
    </linearGradient>
    <linearGradient id="Q" x1="739.291" y1="404.249" x2="830.191" y2="812.76" gradientUnits="userSpaceOnUse">
      <stop stop-color="#FFCBBD"/>
      <stop offset=".61" stop-color="#FFF8F6"/>
      <stop offset="1" stop-color="#BDD9FF"/>
    </linearGradient>
    <linearGradient id="R" x1="733.942" y1="405.44" x2="824.831" y2="813.948" gradientUnits="userSpaceOnUse">
      <stop stop-color="#FFCBBD"/>
      <stop offset=".61" stop-color="#FFF8F6"/>
      <stop offset="1" stop-color="#BDD9FF"/>
    </linearGradient>
    <linearGradient id="S" x1="728.292" y1="406.7" x2="819.181" y2="815.208" gradientUnits="userSpaceOnUse">
      <stop stop-color="#FFCBBD"/>
      <stop offset=".61" stop-color="#FFF8F6"/>
      <stop offset="1" stop-color="#BDD9FF"/>
    </linearGradient>
    <linearGradient id="T" x1="723.03" y1="407.87" x2="813.93" y2="816.38" gradientUnits="userSpaceOnUse">
      <stop stop-color="#FFCBBD"/>
      <stop offset=".61" stop-color="#FFF8F6"/>
      <stop offset="1" stop-color="#BDD9FF"/>
    </linearGradient>
    <linearGradient id="U" x1="717.352" y1="409.129" x2="808.243" y2="817.64" gradientUnits="userSpaceOnUse">
      <stop stop-color="#FFCBBD"/>
      <stop offset=".61" stop-color="#FFF8F6"/>
      <stop offset="1" stop-color="#BDD9FF"/>
    </linearGradient>
    <linearGradient id="V" x1="712.1" y1="410.302" x2="802.999" y2="818.81" gradientUnits="userSpaceOnUse">
      <stop stop-color="#FFCBBD"/>
      <stop offset=".61" stop-color="#FFF8F6"/>
      <stop offset="1" stop-color="#BDD9FF"/>
    </linearGradient>
    <linearGradient id="W" x1="706.538" y1="411.538" x2="797.438" y2="820.048" gradientUnits="userSpaceOnUse">
      <stop stop-color="#FFCBBD"/>
      <stop offset=".61" stop-color="#FFF8F6"/>
      <stop offset="1" stop-color="#BDD9FF"/>
    </linearGradient>
    <linearGradient id="X" x1="701.082" y1="412.751" x2="791.971" y2="821.26" gradientUnits="userSpaceOnUse">
      <stop stop-color="#FFCBBD"/>
      <stop offset=".61" stop-color="#FFF8F6"/>
      <stop offset="1" stop-color="#BDD9FF"/>
    </linearGradient>
    <linearGradient id="Y" x1="695.624" y1="413.969" x2="786.514" y2="822.479" gradientUnits="userSpaceOnUse">
      <stop stop-color="#FFCBBD"/>
      <stop offset=".61" stop-color="#FFF8F6"/>
      <stop offset="1" stop-color="#BDD9FF"/>
    </linearGradient>
    <linearGradient id="Z" x1="689.592" y1="415.311" x2="780.482" y2="823.82" gradientUnits="userSpaceOnUse">
      <stop stop-color="#FFCBBD"/>
      <stop offset=".61" stop-color="#FFF8F6"/>
      <stop offset="1" stop-color="#BDD9FF"/>
    </linearGradient>
    <linearGradient id="aa" x1="684.158" y1="416.518" x2="775.048" y2="825.028" gradientUnits="userSpaceOnUse">
      <stop stop-color="#FFCBBD"/>
      <stop offset=".61" stop-color="#FFF8F6"/>
      <stop offset="1" stop-color="#BDD9FF"/>
    </linearGradient>
    <linearGradient id="ab" x1="678.781" y1="417.721" x2="769.671" y2="826.229" gradientUnits="userSpaceOnUse">
      <stop stop-color="#FFCBBD"/>
      <stop offset=".61" stop-color="#FFF8F6"/>
      <stop offset="1" stop-color="#BDD9FF"/>
    </linearGradient>
    <linearGradient id="ac" x1="673.13" y1="418.969" x2="764.02" y2="827.48" gradientUnits="userSpaceOnUse">
      <stop stop-color="#FFCBBD"/>
      <stop offset=".61" stop-color="#FFF8F6"/>
      <stop offset="1" stop-color="#BDD9FF"/>
    </linearGradient>
    <linearGradient id="ad" x1="667.884" y1="420.137" x2="758.774" y2="828.649" gradientUnits="userSpaceOnUse">
      <stop stop-color="#FFCBBD"/>
      <stop offset=".61" stop-color="#FFF8F6"/>
      <stop offset="1" stop-color="#BDD9FF"/>
    </linearGradient>
    <linearGradient id="ae" x1="642.282" y1="387.089" x2="781.582" y2="660.799" gradientUnits="userSpaceOnUse">
      <stop stop-color="#FFCBBD"/>
      <stop offset=".61" stop-color="#FFF8F6"/>
      <stop offset="1" stop-color="#BDD9FF"/>
    </linearGradient>
    <linearGradient id="af" x1="631.878" y1="392.876" x2="771.188" y2="666.586" gradientUnits="userSpaceOnUse">
      <stop stop-color="#FFCBBD"/>
      <stop offset=".61" stop-color="#FFF8F6"/>
      <stop offset="1" stop-color="#BDD9FF"/>
    </linearGradient>
    <linearGradient id="ag" x1="621.852" y1="398.458" x2="761.163" y2="672.169" gradientUnits="userSpaceOnUse">
      <stop stop-color="#FFCBBD"/>
      <stop offset=".61" stop-color="#FFF8F6"/>
      <stop offset="1" stop-color="#BDD9FF"/>
    </linearGradient>
    <linearGradient id="ah" x1="611.418" y1="404.266" x2="750.716" y2="677.976" gradientUnits="userSpaceOnUse">
      <stop stop-color="#FFCBBD"/>
      <stop offset=".61" stop-color="#FFF8F6"/>
      <stop offset="1" stop-color="#BDD9FF"/>
    </linearGradient>
    <linearGradient id="ai" x1="601.388" y1="409.852" x2="740.697" y2="683.561" gradientUnits="userSpaceOnUse">
      <stop stop-color="#FFCBBD"/>
      <stop offset=".61" stop-color="#FFF8F6"/>
      <stop offset="1" stop-color="#BDD9FF"/>
    </linearGradient>
    <linearGradient id="aj" x1="591.186" y1="415.528" x2="730.494" y2="689.237" gradientUnits="userSpaceOnUse">
      <stop stop-color="#FFCBBD"/>
      <stop offset=".61" stop-color="#FFF8F6"/>
      <stop offset="1" stop-color="#BDD9FF"/>
    </linearGradient>
    <linearGradient id="ak" x1="580.812" y1="421.308" x2="720.113" y2="695.019" gradientUnits="userSpaceOnUse">
      <stop stop-color="#FFCBBD"/>
      <stop offset=".61" stop-color="#FFF8F6"/>
      <stop offset="1" stop-color="#BDD9FF"/>
    </linearGradient>
    <linearGradient id="al" x1="1751.89" y1="384.486" x2="1863.72" y2="762.876" gradientUnits="userSpaceOnUse">
      <stop offset=".32" stop-color="#FFCBBD"/>
      <stop offset=".61" stop-color="#FFF8F6"/>
      <stop offset="1" stop-color="#BDD9FF"/>
    </linearGradient>
    <linearGradient id="am" x1="1741.05" y1="387.695" x2="1852.88" y2="766.074" gradientUnits="userSpaceOnUse">
      <stop offset=".32" stop-color="#FFCBBD"/>
      <stop offset=".61" stop-color="#FFF8F6"/>
      <stop offset="1" stop-color="#BDD9FF"/>
    </linearGradient>
    <linearGradient id="an" x1="1729.96" y1="390.975" x2="1841.79" y2="769.354" gradientUnits="userSpaceOnUse">
      <stop offset=".32" stop-color="#FFCBBD"/>
      <stop offset=".61" stop-color="#FFF8F6"/>
      <stop offset="1" stop-color="#BDD9FF"/>
    </linearGradient>
    <linearGradient id="ao" x1="1718.73" y1="394.287" x2="1830.56" y2="772.676" gradientUnits="userSpaceOnUse">
      <stop offset=".32" stop-color="#FFCBBD"/>
      <stop offset=".61" stop-color="#FFF8F6"/>
      <stop offset="1" stop-color="#BDD9FF"/>
    </linearGradient>
    <linearGradient id="ap" x1="1707.86" y1="397.494" x2="1819.69" y2="775.884" gradientUnits="userSpaceOnUse">
      <stop offset=".32" stop-color="#FFCBBD"/>
      <stop offset=".61" stop-color="#FFF8F6"/>
      <stop offset="1" stop-color="#BDD9FF"/>
    </linearGradient>
    <linearGradient id="aq" x1="896.2" y1="940.186" x2="896.2" y2="1079" gradientUnits="userSpaceOnUse">
      <stop stop-color="#fff"/>
      <stop offset=".85" stop-color="#D4DFFF"/>
    </linearGradient>
    <linearGradient id="ar" x1="177.05" y1="984.68" x2="177.05" y2="1173.36" gradientUnits="userSpaceOnUse">
      <stop offset=".15" stop-color="#A0C8FF"/>
      <stop offset=".51" stop-color="#BBD7FF"/>
      <stop offset="1" stop-color="#fff"/>
    </linearGradient>
    <linearGradient id="as" x1="568.65" y1="1041.71" x2="568.65" y2="1230.39" gradientUnits="userSpaceOnUse">
      <stop offset=".15" stop-color="#A0C8FF"/>
      <stop offset="1" stop-color="#fff"/>
    </linearGradient>
    <linearGradient id="at" x1="1047.05" y1="945.65" x2="1047.05" y2="1190.2" gradientUnits="userSpaceOnUse">
      <stop offset=".15" stop-color="#A0C8FF"/>
      <stop offset=".34" stop-color="#A4CAFF"/>
      <stop offset="1" stop-color="#fff"/>
    </linearGradient>
    <linearGradient id="au" x1="1177.45" y1="1041.7" x2="1177.45" y2="1230.38" gradientUnits="userSpaceOnUse">
      <stop offset=".15" stop-color="#A0C8FF"/>
      <stop offset="1" stop-color="#fff"/>
    </linearGradient>
    <linearGradient id="av" x1="1762.15" y1="984.67" x2="1762.15" y2="1173.35" gradientUnits="userSpaceOnUse">
      <stop offset=".15" stop-color="#A0C8FF"/>
      <stop offset="1" stop-color="#fff"/>
    </linearGradient>
    <linearGradient id="aw" x1="1611.32" y1="945.65" x2="1611.32" y2="1190.2" gradientUnits="userSpaceOnUse">
      <stop offset=".15" stop-color="#A0C8FF"/>
      <stop offset=".34" stop-color="#A4CAFF"/>
      <stop offset="1" stop-color="#fff"/>
    </linearGradient>
    <linearGradient id="ax" x1="433.9" y1="945.65" x2="433.9" y2="1190.2" gradientUnits="userSpaceOnUse">
      <stop offset=".15" stop-color="#A0C8FF"/>
      <stop offset=".34" stop-color="#A4CAFF"/>
      <stop offset="1" stop-color="#fff"/>
    </linearGradient>
    <clipPath id="a">
      <path fill="#fff" d="M0 0h1920v1080H0z"/>
    </clipPath>
  </defs>
</svg>